<svg xmlns="http://www.w3.org/2000/svg" version="1.1" xmlns:xlink="http://www.w3.org/1999/xlink" xmlns:svgjs="http://svgjs.dev/svgjs" width="1500" height="1500" viewBox="0 0 1500 1500"><rect width="1500" height="1500" fill="#ffffff"></rect><g transform="matrix(0.6666666666666666,0,0,0.6666666666666666,249.39393939393938,438.5856950067477)"><svg viewBox="0 0 396 247" data-background-color="#ffffff" preserveAspectRatio="xMidYMid meet" height="935" width="1500" xmlns="http://www.w3.org/2000/svg" xmlns:xlink="http://www.w3.org/1999/xlink"><g id="tight-bounds" transform="matrix(1,0,0,1,0.2400000000000091,-0.09999999999999432)"><svg viewBox="0 0 395.52 247.2" height="247.2" width="395.52"><g><svg></svg></g><g><svg viewBox="0 0 395.52 247.2" height="247.2" width="395.52"><mask id="abe4f4cd-8b5e-4a24-99b7-5c36b242d0b3"><rect width="640" height="400" fill="white"></rect><g transform="matrix(1,0,0,1,65.10942956926661,37.08)"><svg viewBox="0 0 265.30114086146676 173.04" height="173.04" width="265.30114086146676"><g><svg viewBox="0 0 265.30114086146676 173.04" height="173.04" width="265.30114086146676"><g><svg viewBox="0 0 265.30114086146676 173.04" height="173.04" width="265.30114086146676"><g><svg viewBox="0 0 265.30114086146676 173.04" height="173.04" width="265.30114086146676"><g id="SvgjsG1253"><svg viewBox="0 0 265.30114086146676 173.04" height="173.04" width="265.30114086146676" id="SvgjsSvg1252"><g><svg viewBox="0 0 265.30114086146676 173.04" height="173.04" width="265.30114086146676"><g transform="matrix(1,0,0,1,0,0)"><svg width="265.30114086146676" viewBox="-1.7000000000000002 -39.3 66.85 43.95" height="173.04" data-palette-color="#001f3f"><path d="M9.6 0.65Q6 0.65 4.15-0.95 2.3-2.55 2.3-4.8L2.3-4.8Q2.3-6 2.93-6.85 3.55-7.7 4.8-7.7L4.8-7.7Q5.85-7.7 6.25-7L6.25-7Q5.8-5.95 5.8-5L5.8-5Q5.8-3.2 6.95-2.2 8.1-1.2 9.55-1.2L9.55-1.2Q12.25-1.2 13.23-3.1 14.2-5 14.2-8.6L14.2-8.6 14.2-30.7Q14.2-32.55 14.4-33.25L14.4-33.25Q12.65-33.25 9.25-33.45L9.25-33.45Q8.2-33.5 7.45-33.08 6.7-32.65 6.7-31.5L6.7-31.5Q6.7-29.8 8.15-29L8.15-29Q7.6-28.5 6.4-28.5L6.4-28.5Q5.25-28.5 4.38-29.4 3.5-30.3 3.5-31.8L3.5-31.8Q3.5-33.35 4.65-34.33 5.8-35.3 7.85-35.3L7.85-35.3 10.65-35.2Q13.45-35 15.05-35L15.05-35Q16.65-35 18.45-35.2L18.45-35.2Q18.25-34 18.25-31.6L18.25-31.6 18.25-8.95Q18.25 0.65 9.6 0.65L9.6 0.65ZM60.55-5.7Q60.55-2.1 61.15-0.35L61.15-0.35Q60.1 0.55 58.8 0.55L58.8 0.55Q57.85 0.55 57.25-0.05 56.65-0.65 56.65-1.65L56.65-1.65 56.55-29.8 45.6-5.45Q44.4-5 43.4-5L43.4-5Q42.5-5 41.8-5.35L41.8-5.35Q36.15-16.05 30-29.65L30-29.65 30.05-5.7Q30.05-1.95 30.7-0.05L30.7-0.05Q30 0.55 29.05 0.55L29.05 0.55Q27.6 0.55 27.6-1.3L27.6-1.3 27.55-28.95Q27.55-32.5 27.25-34.5L27.25-34.5Q27.85-35.1 29.9-35.1L29.9-35.1Q31.25-35.1 32-34.3L32-34.3 36.15-25.55 44.2-8.85Q45.2-11.05 51.15-24.6L51.15-24.6Q52.65-28.15 53.75-30.65 54.85-33.15 55.55-34.7L55.55-34.7Q56.6-35.1 58-35.1L58-35.1Q58.95-35.1 59.67-34.75 60.4-34.4 60.45-33.9L60.45-33.9 60.55-5.7Z" opacity="1" transform="matrix(1,0,0,1,0,0)" fill="black" class="wordmark-text-0" id="SvgjsPath1251" stroke-width="7" stroke="black" stroke-linejoin="round"></path></svg></g></svg></g></svg></g></svg></g></svg></g></svg></g></svg></g></mask><g transform="matrix(1,0,0,1,65.10942956926661,37.08)"><svg viewBox="0 0 265.30114086146676 173.04" height="173.04" width="265.30114086146676"><g><svg viewBox="0 0 265.30114086146676 173.04" height="173.04" width="265.30114086146676"><g><svg viewBox="0 0 265.30114086146676 173.04" height="173.04" width="265.30114086146676"><g><svg viewBox="0 0 265.30114086146676 173.04" height="173.04" width="265.30114086146676"><g id="textblocktransform"><svg viewBox="0 0 265.30114086146676 173.04" height="173.04" width="265.30114086146676" id="textblock"><g><svg viewBox="0 0 265.30114086146676 173.04" height="173.04" width="265.30114086146676"><g transform="matrix(1,0,0,1,0,0)"><svg width="265.30114086146676" viewBox="-1.7000000000000002 -39.3 66.85 43.95" height="173.04" data-palette-color="#001f3f"><path d="M9.6 0.65Q6 0.65 4.15-0.95 2.3-2.55 2.3-4.8L2.3-4.8Q2.3-6 2.93-6.85 3.55-7.7 4.8-7.7L4.8-7.7Q5.85-7.7 6.25-7L6.25-7Q5.8-5.95 5.8-5L5.8-5Q5.8-3.2 6.95-2.2 8.1-1.2 9.55-1.2L9.55-1.2Q12.25-1.2 13.23-3.1 14.2-5 14.2-8.6L14.2-8.6 14.2-30.7Q14.2-32.55 14.4-33.25L14.4-33.25Q12.65-33.25 9.25-33.45L9.25-33.45Q8.2-33.5 7.45-33.08 6.7-32.65 6.7-31.5L6.7-31.5Q6.7-29.8 8.15-29L8.15-29Q7.6-28.5 6.4-28.5L6.4-28.5Q5.25-28.5 4.38-29.4 3.5-30.3 3.5-31.8L3.5-31.8Q3.5-33.35 4.65-34.33 5.8-35.3 7.85-35.3L7.85-35.3 10.65-35.2Q13.45-35 15.05-35L15.05-35Q16.65-35 18.45-35.2L18.45-35.2Q18.25-34 18.25-31.6L18.25-31.6 18.25-8.95Q18.25 0.65 9.6 0.65L9.6 0.65ZM60.55-5.7Q60.55-2.1 61.15-0.35L61.15-0.35Q60.1 0.55 58.8 0.55L58.8 0.55Q57.85 0.55 57.25-0.05 56.65-0.65 56.65-1.65L56.65-1.65 56.55-29.8 45.6-5.45Q44.4-5 43.4-5L43.4-5Q42.5-5 41.8-5.35L41.8-5.35Q36.15-16.05 30-29.65L30-29.65 30.05-5.7Q30.05-1.95 30.7-0.05L30.7-0.05Q30 0.55 29.05 0.55L29.05 0.55Q27.6 0.55 27.6-1.3L27.6-1.3 27.55-28.95Q27.55-32.5 27.25-34.5L27.25-34.5Q27.85-35.1 29.9-35.1L29.9-35.1Q31.25-35.1 32-34.3L32-34.3 36.15-25.55 44.2-8.85Q45.2-11.05 51.15-24.6L51.15-24.6Q52.65-28.15 53.75-30.65 54.85-33.15 55.55-34.7L55.55-34.7Q56.6-35.1 58-35.1L58-35.1Q58.95-35.1 59.67-34.75 60.4-34.4 60.45-33.9L60.45-33.9 60.55-5.7Z" opacity="1" transform="matrix(1,0,0,1,0,0)" fill="#001f3f" class="wordmark-text-0" data-fill-palette-color="primary" id="text-0"></path></svg></g></svg></g></svg></g></svg></g></svg></g></svg></g></svg></g><g mask="url(#abe4f4cd-8b5e-4a24-99b7-5c36b242d0b3)"><g transform="matrix(3.60807122244139, 0, 0, 3.60807122244139, 133.58509252024248, 1.0000000000000142)"><svg xmlns="http://www.w3.org/2000/svg" xmlns:xlink="http://www.w3.org/1999/xlink" version="1.1" x="0" y="0" viewBox="19.682354658322133 3.5 35.57297155366782 67.95874717630606" enable-background="new 0 0 75 75" xml:space="preserve" height="67.95874717630606" width="35.57297155366782" class="icon-none" data-fill-palette-color="accent" id="none"><path d="M21.2 59.5c-1.1-2.6-4.2-12.2 3.8-24.7C36 18 31.7 3.5 31.7 3.5S46 8.8 41.7 37.5c-1 6.5-0.9 9 2 9.4 5 0.7 3.1-19.7 3.1-19.7s3.9 2 6.8 12.1c1.5 5.3 1.8 9.5 1.6 12.5-1 18.1-16.5 19.6-16.5 19.6S26.9 73 21.2 59.5z" fill="#ff0d00" data-fill-palette-color="accent"></path></svg></g></g></svg></g><defs></defs></svg><rect width="395.52" height="247.2" fill="none" stroke="none" visibility="hidden"></rect></g></svg></g></svg>